<svg width="1119" height="547" viewBox="0 0 1119 547" fill="none" xmlns="http://www.w3.org/2000/svg">
<path d="M150 2.04517C136.267 4.9785 124.667 9.3785 113.6 15.9118C109.467 18.4452 101.067 22.9785 95.0667 25.9118C78.4 34.0452 70.2667 40.0452 55.4667 54.7118C42.5333 67.6452 41.4667 69.1118 30.4 90.1785C17.8667 114.045 6.53333 142.979 2.53333 160.845C0.4 170.712 0 178.045 0 218.312C0 260.845 0.266667 265.245 2.8 274.979C7.6 293.379 8 294.979 10 315.779C11.0667 326.979 12.6667 338.579 13.4667 341.512C17.6 356.979 28.2667 385.512 34.8 398.579C42.8 414.445 76.1333 442.845 95.4667 450.045C104.533 453.512 119.733 457.645 135.333 461.112C142 462.579 155.733 465.912 166 468.579C182.133 472.712 187.333 473.379 204.667 473.912C236.4 474.712 259.867 469.112 277.067 456.445C308 433.645 313.6 428.179 324.4 410.845C333.067 396.845 338.667 390.712 358 373.779C367.733 365.245 373.867 361.379 390 353.245C407.867 344.312 411.067 342.045 420.133 332.979C431.467 321.645 436 314.045 436 306.579C435.867 295.645 425.2 284.979 414.267 284.845C407.6 284.845 402.267 287.779 393.2 296.179C387.867 301.379 380.667 305.912 366.933 312.712C352.933 319.645 346 324.045 339.733 329.912C335.067 334.179 327.067 341.112 321.867 345.245C309.2 355.112 295.067 370.845 285.6 385.645C277.2 398.312 272.267 403.379 258.667 412.979C246.4 421.645 238.667 424.445 222.667 426.179C206.267 428.045 195.867 427.245 179.333 422.845C172.8 421.112 162.533 418.712 156.667 417.645C137.6 414.045 109.333 405.779 102.667 401.912C100.133 400.312 94 395.912 89.0667 391.912C81.8667 386.179 79.3333 383.112 76 376.045C73.6 371.245 71.2 365.645 70.6667 363.779C70 361.779 67.8667 355.912 66 350.845C60.8 336.979 59.0667 329.379 58 317.512C56.4 298.579 53.2 278.579 50.4 269.912C47.8667 262.445 47.4667 257.645 47.0667 226.045C46.4 186.312 47.6 170.579 52.4 157.245C61.3333 132.445 64.4 125.379 72.8 109.512C84.8 86.8452 91.4667 80.0452 112.133 69.6452C120.533 65.3785 130.667 59.9118 134.667 57.5118C138.667 55.1118 145.067 52.1785 148.667 50.9785C172.533 43.3785 237.467 45.1118 269.2 54.3118C292.8 61.1118 314.533 76.0452 324.933 92.7118C333.867 106.845 341.867 112.845 351.6 112.845C362.533 112.712 373.2 102.045 373.333 91.2452C373.333 76.8452 354.133 50.7118 331.333 34.3118C310 18.8452 298 12.9785 277.733 7.51183C255.333 1.3785 247.467 0.711832 204 0.178499C167.2 -0.221501 160.533 -0.0881676 150 2.04517Z" fill="#3C63ED"/>
<path d="M806 8.84518C803.067 9.37851 793.2 11.2452 784 12.8452C761.2 16.8452 729.6 27.2452 719.333 34.1785C697.867 48.7118 690.8 54.3118 683.067 63.1118C678.533 68.4452 665.867 80.8452 655.067 90.5785C630.533 112.979 609.867 134.179 604.4 142.845C602 146.579 597.067 156.445 593.333 164.845C585.6 182.179 581.733 190.312 576 200.845C573.067 206.179 572 210.045 572 214.979C572 220.045 571.067 223.112 568.667 226.712C566.8 229.379 564.4 233.379 563.333 235.512C556.667 248.445 567.467 266.712 596.133 290.845C616 307.512 628.133 319.912 641.333 336.845C662.667 363.912 672.267 371.912 720.933 403.512C746 419.779 747.333 420.579 768.667 427.512C789.067 434.179 799.333 435.245 858.267 436.445C899.333 437.245 907.333 436.312 928.667 427.912C950 419.645 950 419.645 954.933 424.445C963.467 432.445 972.8 434.712 984 431.512C992.533 429.112 999.867 429.512 1002.93 432.445C1006.93 436.579 1006.8 455.512 1002.67 464.045C998 473.779 979.067 486.845 957.333 495.512C941.867 501.512 934.4 506.845 930.667 514.312C925.2 524.845 929.2 537.512 939.733 543.245C946.4 546.979 938.533 546.712 1032 545.245L1100.67 544.179L1106.67 540.845C1122.4 532.045 1122.4 510.979 1106.67 502.179C1100.93 498.979 1099.47 498.845 1072.53 498.179C1039.6 497.379 1038.27 496.979 1043.33 488.979C1048.93 480.045 1052.27 466.712 1052.93 450.845C1053.73 432.579 1052.13 423.112 1045.47 409.379C1036.4 390.445 1028.53 384.179 1011.33 382.312C1006 381.645 1000.93 380.712 1000.13 380.312C998.133 378.979 998.267 376.179 1000.53 374.312C1003.6 371.779 1016.4 352.179 1026.53 334.179C1035.47 318.579 1040 307.112 1042 294.845C1043.07 288.979 1046.93 273.779 1050.4 262.179C1052.27 256.045 1052.67 248.445 1052.67 217.512C1052.67 182.845 1052.4 179.512 1049.73 170.179C1048 164.712 1045.73 155.112 1044.53 148.845C1043.47 142.579 1041.2 133.912 1039.73 129.512C1035.73 117.779 1021.73 91.3785 1015.73 84.3118C1012.93 80.9785 1003.87 73.7785 995.6 68.1785C987.333 62.5785 976.133 54.9785 970.667 51.1118C959.467 43.3785 932.133 26.9785 922 21.9118C900.8 11.3785 878.533 7.51185 840.133 7.64518C824.267 7.77851 808.933 8.31185 806 8.84518ZM880.667 57.5118C895.2 60.5785 905.333 65.1118 927.867 78.7118C953.467 94.0452 976.8 110.979 981.6 117.512C987.467 125.512 994.133 140.312 996.533 150.845C997.733 155.912 1000.4 166.712 1002.4 174.845C1005.73 188.579 1006 191.379 1006 218.179C1006 245.512 1005.73 247.379 1002.27 258.845C1000.27 265.379 997.733 275.379 996.667 280.845C993.6 296.979 991.333 302.845 982.533 317.912C966.133 345.779 958.8 355.245 945.333 365.512C933.067 374.712 922.533 380.445 909.2 384.979C896.667 389.379 896.667 389.379 868.667 389.379C853.333 389.512 830.4 388.845 817.733 387.912C797.467 386.579 793.067 385.779 779.467 381.512C765.867 377.112 761.467 374.845 742.933 362.845C698.933 334.179 692 328.445 678.4 310.179C671.733 301.112 644.8 274.179 618.133 249.512C605.6 237.912 604.933 234.712 613.333 225.112C620.667 216.979 625.867 207.379 634.8 186.712C638.8 177.112 644.8 165.645 647.867 161.245C653.467 153.245 672.133 134.979 690 120.045C695.2 115.645 704.4 107.112 710.667 100.845C722.667 88.7118 736.667 77.2452 743.333 73.9118C750.667 70.1785 776.533 62.3118 786 60.8452C791.2 60.0452 799.6 58.4452 804.667 57.5118C818.4 54.7118 821.067 54.5785 846.667 54.8452C862.4 55.1118 873.467 55.9118 880.667 57.5118Z" fill="#3C63ED"/>
<path d="M408.667 109.245C394 117.645 394 138.712 408.667 147.112C419.2 153.112 432.267 149.379 438.267 138.845C444.267 128.312 440.533 115.245 430 109.245C426.933 107.512 422.4 106.179 419.333 106.179C416.267 106.179 411.733 107.512 408.667 109.245Z" fill="#3C63ED"/>
<path d="M459.333 138.578C452.8 142.312 448 150.312 448 157.512C448 168.712 458.533 179.378 469.733 179.512C475.333 179.512 480.133 183.378 484.267 191.112C486.933 196.312 495.467 200.845 502.267 200.845C513.467 200.712 524 190.045 524 178.845C524 167.645 513.467 156.978 502.267 156.845C496.667 156.845 491.867 152.978 487.733 145.245C485.067 140.045 476.533 135.512 469.733 135.512C466.933 135.512 462.267 136.845 459.333 138.578Z" fill="#3C63ED"/>
<path d="M513.333 238.045C510.8 239.512 506.8 243.112 504.533 246.312L500.4 252.179L490.533 251.779C482.267 251.512 479.867 251.912 475.333 254.445C460.667 262.979 460.667 284.045 475.333 292.445C485.733 298.312 497.867 294.979 504.933 284.579L508.8 278.845L518.8 279.245C527.067 279.512 529.467 279.112 534 276.579C536.933 274.845 540.667 271.112 542.267 268.179C552.8 249.645 532.133 228.179 513.333 238.045Z" fill="#3C63ED"/>
</svg>
