<svg width="214" height="60" viewBox="0 0 214 60" fill="none" xmlns="http://www.w3.org/2000/svg">
<path d="M13.014 41.54C10.434 41.54 8.256 40.97 6.48 39.83C4.704 38.678 3.36 37.088 2.448 35.06C1.536 33.032 1.08 30.692 1.08 28.04C1.08 25.388 1.536 23.048 2.448 21.02C3.36 18.992 4.704 17.408 6.48 16.268C8.256 15.116 10.434 14.54 13.014 14.54C16.026 14.54 18.486 15.314 20.394 16.862C22.302 18.398 23.61 20.462 24.318 23.054L21.618 23.756C21.066 21.704 20.076 20.078 18.648 18.878C17.22 17.678 15.342 17.078 13.014 17.078C10.986 17.078 9.3 17.54 7.956 18.464C6.612 19.388 5.598 20.678 4.914 22.334C4.242 23.978 3.894 25.88 3.87 28.04C3.858 30.2 4.188 32.102 4.86 33.746C5.544 35.39 6.564 36.68 7.92 37.616C9.288 38.54 10.986 39.002 13.014 39.002C15.342 39.002 17.22 38.402 18.648 37.202C20.076 35.99 21.066 34.364 21.618 32.324L24.318 33.026C23.61 35.618 22.302 37.688 20.394 39.236C18.486 40.772 16.026 41.54 13.014 41.54ZM28.2895 41V15.08H43.1755V17.726H30.9355V26.726H41.0155V29.354H30.9355V41H28.2895ZM96.5663 41V17.618H87.5123V15.08H108.266V17.618H99.2123V41H96.5663ZM111.153 41V15.08H121.161C121.413 15.08 121.695 15.092 122.007 15.116C122.331 15.128 122.655 15.164 122.979 15.224C124.335 15.428 125.481 15.902 126.417 16.646C127.365 17.378 128.079 18.302 128.559 19.418C129.051 20.534 129.297 21.77 129.297 23.126C129.297 24.47 129.051 25.7 128.559 26.816C128.067 27.932 127.347 28.862 126.399 29.606C125.463 30.338 124.323 30.806 122.979 31.01C122.655 31.058 122.331 31.094 122.007 31.118C121.695 31.142 121.413 31.154 121.161 31.154H113.799V41H111.153ZM113.799 28.634H121.089C121.305 28.634 121.557 28.622 121.845 28.598C122.133 28.574 122.415 28.532 122.691 28.472C123.579 28.28 124.305 27.914 124.869 27.374C125.445 26.834 125.871 26.192 126.147 25.448C126.435 24.704 126.579 23.93 126.579 23.126C126.579 22.322 126.435 21.548 126.147 20.804C125.871 20.048 125.445 19.4 124.869 18.86C124.305 18.32 123.579 17.954 122.691 17.762C122.415 17.702 122.133 17.666 121.845 17.654C121.557 17.63 121.305 17.618 121.089 17.618H113.799V28.634ZM132.879 41V15.08H142.887C143.139 15.08 143.421 15.092 143.733 15.116C144.057 15.128 144.381 15.164 144.705 15.224C146.061 15.428 147.207 15.902 148.143 16.646C149.091 17.378 149.805 18.302 150.285 19.418C150.777 20.534 151.023 21.77 151.023 23.126C151.023 25.082 150.507 26.78 149.475 28.22C148.443 29.66 146.967 30.566 145.047 30.938L144.129 31.154H135.525V41H132.879ZM148.575 41L143.463 30.452L146.001 29.48L151.617 41H148.575ZM135.525 28.634H142.815C143.031 28.634 143.283 28.622 143.571 28.598C143.859 28.574 144.141 28.532 144.417 28.472C145.305 28.28 146.031 27.914 146.595 27.374C147.171 26.834 147.597 26.192 147.873 25.448C148.161 24.704 148.305 23.93 148.305 23.126C148.305 22.322 148.161 21.548 147.873 20.804C147.597 20.048 147.171 19.4 146.595 18.86C146.031 18.32 145.305 17.954 144.417 17.762C144.141 17.702 143.859 17.666 143.571 17.654C143.283 17.63 143.031 17.618 142.815 17.618H135.525V28.634ZM160.108 41V18.032L155.23 20.966V17.996L160.108 15.08H162.79V41H160.108ZM169.618 41V15.08H172.282L186.556 36.32V15.08H189.22V41H186.556L172.282 19.742V41H169.618ZM201.156 41V17.618H192.102V15.08H212.856V17.618H203.802V41H201.156Z" fill="white"/>
<path d="M51.035 17.0899C50.4825 17.2187 50.0158 17.4121 49.5705 17.6991C49.4042 17.8104 49.0663 18.0096 48.8249 18.1385C48.1543 18.4958 47.8271 18.7594 47.2316 19.4038C46.7113 19.972 46.6684 20.0365 46.2231 20.9621C45.7188 22.0107 45.2629 23.2819 45.1019 24.0669C45.0161 24.5004 45 24.8226 45 26.5917C45 28.4605 45.0107 28.6538 45.1127 29.0814C45.3058 29.8898 45.3219 29.9601 45.4023 30.874C45.4453 31.3661 45.5096 31.8757 45.5418 32.0046C45.7081 32.6842 46.1373 33.9378 46.4001 34.5119C46.722 35.209 48.0631 36.4568 48.841 36.7731C49.2058 36.9254 49.8173 37.107 50.445 37.2593C50.7132 37.3238 51.2657 37.4702 51.6788 37.5874C52.3279 37.769 52.5371 37.7983 53.2345 37.8217C54.5112 37.8569 55.4554 37.6108 56.1474 37.0543C57.392 36.0526 57.6173 35.8124 58.0518 35.0508C58.4005 34.4357 58.6258 34.1663 59.4036 33.4223C59.7953 33.0474 60.042 32.8775 60.6911 32.5201C61.41 32.1276 61.5387 32.028 61.9035 31.6297C62.3595 31.1318 62.5419 30.7978 62.5419 30.4698C62.5365 29.9894 62.1073 29.5208 61.6675 29.5149C61.3992 29.5149 61.1847 29.6438 60.8199 30.0129C60.6053 30.2413 60.3156 30.4405 59.7631 30.7393C59.1998 31.0439 58.9208 31.2372 58.6687 31.495C58.481 31.6824 58.1591 31.987 57.9499 32.1686C57.4402 32.6021 56.8716 33.2934 56.4907 33.9436C56.1528 34.5002 55.9543 34.7228 55.4071 35.1446C54.9136 35.5253 54.6024 35.6484 53.9587 35.7245C53.2989 35.8065 52.8804 35.7714 52.2152 35.5781C51.9524 35.5019 51.5393 35.3965 51.3033 35.3496C50.5362 35.1914 49.3989 34.8282 49.1307 34.6583C49.0287 34.588 48.782 34.3947 48.5835 34.219C48.2938 33.9671 48.1919 33.8323 48.0578 33.5219C47.9612 33.311 47.8646 33.0649 47.8432 32.9829C47.8164 32.895 47.7305 32.6373 47.6554 32.4147C47.4462 31.8054 47.3765 31.4715 47.3336 30.9502C47.2692 30.1183 47.1404 29.2396 47.0278 28.8588C46.9259 28.5308 46.9098 28.3199 46.8937 26.9315C46.8668 25.1858 46.9151 24.4945 47.1082 23.9087C47.4677 22.8191 47.591 22.5086 47.929 21.8115C48.4118 20.8156 48.68 20.5169 49.5115 20.0599C49.8495 19.8725 50.2572 19.6323 50.4181 19.5268C50.5791 19.4214 50.8366 19.2925 50.9814 19.2398C51.9416 18.9059 54.5542 18.982 55.8309 19.3862C56.7804 19.685 57.6548 20.3411 58.0733 21.0734C58.4327 21.6943 58.7545 21.958 59.1462 21.958C59.586 21.9521 60.0152 21.4834 60.0206 21.0089C60.0206 20.3763 59.2481 19.2281 58.3308 18.5075C57.4724 17.828 56.9896 17.5702 56.1742 17.33C55.273 17.0606 54.9565 17.0313 53.2077 17.0078C51.7271 16.9903 51.4588 16.9961 51.035 17.0899Z" fill="#3C63ED"/>
<path d="M77.4284 17.3886C77.3103 17.4121 76.9134 17.4941 76.5432 17.5644C75.6259 17.7401 74.3545 18.197 73.9414 18.5017C73.0778 19.1402 72.7934 19.3862 72.4823 19.7729C72.2999 20.0072 71.7903 20.552 71.3558 20.9796C70.3687 21.9638 69.5372 22.8952 69.3173 23.276C69.2207 23.4401 69.0222 23.8736 68.872 24.2426C68.5609 25.0042 68.4053 25.3615 68.1746 25.8243C68.0566 26.0586 68.0137 26.2285 68.0137 26.4453C68.0137 26.6679 67.9761 26.8026 67.8796 26.9608C67.8045 27.0779 67.7079 27.2537 67.665 27.3474C67.3968 27.9156 67.8313 28.7182 68.9847 29.7785C69.784 30.5108 70.2721 31.0556 70.8032 31.7996C71.6615 32.9888 72.0478 33.3403 74.0058 34.7286C75.0143 35.4433 75.068 35.4785 75.9263 35.7831C76.7471 36.076 77.1601 36.1229 79.5312 36.1756C81.1835 36.2107 81.5054 36.1697 82.3637 35.8007C83.222 35.4375 83.222 35.4375 83.4205 35.6484C83.7638 35.9998 84.1393 36.0994 84.5899 35.9588C84.9333 35.8534 85.2283 35.871 85.3517 35.9998C85.5126 36.1814 85.5073 37.0133 85.341 37.3882C85.1532 37.8159 84.3915 38.39 83.517 38.7707C82.8948 39.0343 82.5944 39.2687 82.4441 39.5967C82.2242 40.0595 82.3851 40.616 82.8089 40.8679C83.0772 41.032 82.7607 41.0202 86.5212 40.9558L89.2839 40.9089L89.5253 40.7625C90.1583 40.3759 90.1583 39.4503 89.5253 39.0636C89.2946 38.923 89.2356 38.9172 88.152 38.8879C86.8269 38.8527 86.7733 38.8352 86.9771 38.4837C87.2024 38.0912 87.3366 37.5054 87.3634 36.8083C87.3956 36.0057 87.3312 35.5898 87.063 34.9864C86.6982 34.1545 86.3817 33.8792 85.6897 33.7972C85.4751 33.7679 85.2712 33.7269 85.239 33.7093C85.1586 33.6507 85.1639 33.5277 85.2551 33.4457C85.3785 33.3344 85.8935 32.4733 86.3012 31.6824C86.6606 30.997 86.843 30.4932 86.9235 29.9543C86.9664 29.6965 87.122 29.0287 87.2615 28.519C87.3366 28.2496 87.3527 27.9156 87.3527 26.5566C87.3527 25.0335 87.3419 24.887 87.2346 24.4769C87.1649 24.2368 87.0737 23.815 87.0254 23.5396C86.9825 23.2643 86.8913 22.8835 86.8323 22.6902C86.6714 22.1747 86.1081 21.0148 85.8667 20.7043C85.754 20.5579 85.3893 20.2415 85.0567 19.9955C84.7241 19.7494 84.2734 19.4155 84.0535 19.2456C83.6029 18.9059 82.5032 18.1853 82.0955 17.9627C81.2425 17.4999 80.3466 17.33 78.8017 17.3359C78.1633 17.3418 77.5464 17.3652 77.4284 17.3886ZM80.4325 19.5268C81.0172 19.6616 81.4249 19.8607 82.3315 20.4583C83.3615 21.132 84.3003 21.8759 84.4934 22.163C84.7294 22.5145 84.9976 23.1647 85.0942 23.6275C85.1425 23.8501 85.2498 24.3246 85.3302 24.682C85.4644 25.2854 85.4751 25.4084 85.4751 26.5859C85.4751 27.7868 85.4644 27.8688 85.3249 28.3726C85.2444 28.6596 85.1425 29.099 85.0996 29.3392C84.9762 30.048 84.885 30.3058 84.5309 30.9677C83.8711 32.1921 83.5761 32.608 83.0342 33.0591C82.5407 33.4633 82.1169 33.7152 81.5805 33.9144C81.0762 34.1077 81.0762 34.1077 79.9497 34.1077C79.3327 34.1135 78.4101 34.0842 77.9004 34.0432C77.085 33.9847 76.908 33.9495 76.3608 33.762C75.8136 33.5687 75.6366 33.4691 74.891 32.9419C73.1207 31.6824 72.8417 31.4305 72.2945 30.628C72.0263 30.2296 70.9427 29.0463 69.8698 27.9625C69.3655 27.4529 69.3387 27.3123 69.6767 26.8905C69.9717 26.5331 70.1809 26.1113 70.5404 25.2033C70.7013 24.7816 70.9427 24.2778 71.0661 24.0844C71.2914 23.733 72.0424 22.9304 72.7613 22.2743C72.9705 22.081 73.3406 21.706 73.5927 21.4307C74.0756 20.8976 74.6388 20.3938 74.907 20.2474C75.2021 20.0834 76.2428 19.7377 76.6237 19.6733C76.8329 19.6381 77.1709 19.5678 77.3747 19.5268C77.9273 19.4038 78.0345 19.398 79.0645 19.4097C79.6975 19.4214 80.1428 19.4565 80.4325 19.5268Z" fill="#3C63ED"/>
<path d="M61.4421 21.7998C60.852 22.1688 60.852 23.0944 61.4421 23.4635C61.8659 23.7271 62.3917 23.5631 62.6331 23.1003C62.8745 22.6375 62.7243 22.0634 62.3005 21.7998C62.1771 21.7236 61.9947 21.665 61.8713 21.665C61.7479 21.665 61.5655 21.7236 61.4421 21.7998Z" fill="#3C63ED"/>
<path d="M63.4806 23.0886C63.2178 23.2526 63.0247 23.6041 63.0247 23.9204C63.0247 24.4125 63.4485 24.8811 63.8991 24.887C64.1244 24.887 64.3175 25.0569 64.4838 25.3967C64.5911 25.6251 64.9344 25.8243 65.208 25.8243C65.6586 25.8184 66.0824 25.3498 66.0824 24.8577C66.0824 24.3656 65.6586 23.897 65.208 23.8911C64.9827 23.8911 64.7896 23.7212 64.6233 23.3815C64.516 23.153 64.1727 22.9538 63.8991 22.9538C63.7864 22.9538 63.5987 23.0124 63.4806 23.0886Z" fill="#3C63ED"/>
<path d="M65.6532 27.4587C65.5513 27.5232 65.3904 27.6813 65.2992 27.8219L65.1329 28.0797L64.7359 28.0621C64.4033 28.0504 64.3067 28.068 64.1243 28.1793C63.5342 28.5542 63.5342 29.4798 64.1243 29.8488C64.5428 30.1066 65.0309 29.9601 65.3152 29.5032L65.4708 29.2513L65.8732 29.2689C66.2058 29.2806 66.3023 29.263 66.4847 29.1517C66.6027 29.0756 66.7529 28.9115 66.8173 28.7827C67.2411 27.9684 66.4096 27.0252 65.6532 27.4587Z" fill="#3C63ED"/>
</svg>
