<?xml version="1.0" standalone="no"?>
<!DOCTYPE svg PUBLIC "-//W3C//DTD SVG 20010904//EN"
 "http://www.w3.org/TR/2001/REC-SVG-20010904/DTD/svg10.dtd">
<svg version="1.0" xmlns="http://www.w3.org/2000/svg"
 width="1000.000000pt" height="1000.000000pt" viewBox="0 0 1000.000000 1000.000000"
 preserveAspectRatio="xMidYMid meet">

<g transform="translate(0.000000,1000.000000) scale(0.100000,-0.100000)"
fill="#000000" stroke="none">
<path d="M2295 7161 c-103 -22 -190 -55 -273 -104 -31 -19 -94 -53 -139 -75
-125 -61 -186 -106 -297 -216 -97 -97 -105 -108 -188 -266 -94 -179 -179 -396
-209 -530 -16 -74 -19 -129 -19 -431 0 -319 2 -352 21 -425 36 -138 39 -150
54 -306 8 -84 20 -171 26 -193 31 -116 111 -330 160 -428 60 -119 310 -332
455 -386 68 -26 182 -57 299 -83 50 -11 153 -36 230 -56 121 -31 160 -36 290
-40 238 -6 414 36 543 131 232 171 274 212 355 342 65 105 107 151 252 278 73
64 119 93 240 154 134 67 158 84 226 152 85 85 119 142 119 198 -1 82 -81 162
-163 163 -50 0 -90 -22 -158 -85 -40 -39 -94 -73 -197 -124 -105 -52 -157 -85
-204 -129 -35 -32 -95 -84 -134 -115 -95 -74 -201 -192 -272 -303 -63 -95
-100 -133 -202 -205 -92 -65 -150 -86 -270 -99 -123 -14 -201 -8 -325 25 -49
13 -126 31 -170 39 -143 27 -355 89 -405 118 -19 12 -65 45 -102 75 -54 43
-73 66 -98 119 -18 36 -36 78 -40 92 -5 15 -21 59 -35 97 -39 104 -52 161 -60
250 -12 142 -36 292 -57 357 -19 56 -22 92 -25 329 -5 298 4 416 40 516 67
186 90 239 153 358 90 170 140 221 295 299 63 32 139 73 169 91 30 18 78 40
105 49 179 57 666 44 904 -25 177 -51 340 -163 418 -288 67 -106 127 -151 200
-151 82 1 162 81 163 162 0 108 -144 304 -315 427 -160 116 -250 160 -402 201
-168 46 -227 51 -553 55 -276 3 -326 2 -405 -14z"/>
<path d="M7215 7110 c-22 -4 -96 -18 -165 -30 -171 -30 -408 -108 -485 -160
-161 -109 -214 -151 -272 -217 -34 -40 -129 -133 -210 -206 -184 -168 -339
-327 -380 -392 -18 -28 -55 -102 -83 -165 -58 -130 -87 -191 -130 -270 -22
-40 -30 -69 -30 -106 0 -38 -7 -61 -25 -88 -14 -20 -32 -50 -40 -66 -50 -97
31 -234 246 -415 149 -125 240 -218 339 -345 160 -203 232 -263 597 -500 188
-122 198 -128 358 -180 153 -50 230 -58 672 -67 308 -6 368 1 528 64 160 62
160 62 197 26 64 -60 134 -77 218 -53 64 18 119 15 142 -7 30 -31 29 -173 -2
-237 -35 -73 -177 -171 -340 -236 -116 -45 -172 -85 -200 -141 -41 -79 -11
-174 68 -217 50 -28 -9 -26 692 -15 l515 8 45 25 c118 66 118 224 0 290 -43
24 -54 25 -256 30 -247 6 -257 9 -219 69 42 67 67 167 72 286 6 137 -6 208
-56 311 -68 142 -127 189 -256 203 -40 5 -78 12 -84 15 -15 10 -14 31 3 45 23
19 119 166 195 301 67 117 101 203 116 295 8 44 37 158 63 245 14 46 17 103
17 335 0 260 -2 285 -22 355 -13 41 -30 113 -39 160 -8 47 -25 112 -36 145
-30 88 -135 286 -180 339 -21 25 -89 79 -151 121 -62 42 -146 99 -187 128 -84
58 -289 181 -365 219 -159 79 -326 108 -614 107 -119 -1 -234 -5 -256 -9z
m560 -365 c109 -23 185 -57 354 -159 192 -115 367 -242 403 -291 44 -60 94
-171 112 -250 9 -38 29 -119 44 -180 25 -103 27 -124 27 -325 0 -205 -2 -219
-28 -305 -15 -49 -34 -124 -42 -165 -23 -121 -40 -165 -106 -278 -123 -209
-178 -280 -279 -357 -92 -69 -171 -112 -271 -146 -94 -33 -94 -33 -304 -33
-115 -1 -287 4 -382 11 -152 10 -185 16 -287 48 -102 33 -135 50 -274 140
-330 215 -382 258 -484 395 -50 68 -252 270 -452 455 -94 87 -99 111 -36 183
55 61 94 133 161 288 30 72 75 158 98 191 42 60 182 197 316 309 39 33 108 97
155 144 90 91 195 177 245 202 55 28 249 87 320 98 39 6 102 18 140 25 103 21
123 22 315 20 118 -2 201 -8 255 -20z"/>
<path d="M4235 6357 c-110 -63 -110 -221 0 -284 79 -45 177 -17 222 62 45 79
17 177 -62 222 -23 13 -57 23 -80 23 -23 0 -57 -10 -80 -23z"/>
<path d="M4615 6137 c-49 -28 -85 -88 -85 -142 0 -84 79 -164 163 -165 42 0
78 -29 109 -87 20 -39 84 -73 135 -73 84 1 163 81 163 165 0 84 -79 164 -163
165 -42 0 -78 29 -109 87 -20 39 -84 73 -135 73 -21 0 -56 -10 -78 -23z"/>
<path d="M5020 5391 c-19 -11 -49 -38 -66 -62 l-31 -44 -74 3 c-62 2 -80 -1
-114 -20 -110 -64 -110 -222 0 -285 78 -44 169 -19 222 59 l29 43 75 -3 c62
-2 80 1 114 20 22 13 50 41 62 63 79 139 -76 300 -217 226z"/>
</g>
</svg>
